# Blender v2.93.5 OBJ File: 'pacman_scene.blend'
# www.blender.org
o BorderAndOutside_Plane.007
v -17.000000 0.000000 -4.000000
v -17.000000 2.000000 -4.000000
v -17.000000 0.000000 -12.000001
v -17.000000 2.000000 -12.000001
v -26.999998 0.000000 -12.000001
v -26.999998 2.000000 -12.000001
v -17.000000 0.000000 0.000000
v -17.000000 2.000000 0.000000
v -17.000000 0.000000 8.000000
v -17.000000 2.000000 8.000000
v -26.999998 0.000000 8.000000
v -26.999998 2.000000 8.000000
v -29.000000 2.000000 31.000002
v -29.000000 2.000000 29.000000
v 29.000000 2.000000 31.000002
v 29.000000 2.000000 29.000000
v -29.000000 2.000000 -29.000000
v -29.000000 2.000000 -31.000002
v 29.000000 2.000000 -29.000000
v 29.000000 2.000000 -31.000002
v 17.000000 0.000000 -4.000000
v 17.000000 2.000000 -4.000000
v 17.000000 0.000000 -12.000001
v 17.000000 2.000000 -12.000001
v 26.999998 0.000000 -12.000001
v 26.999998 2.000000 -12.000001
v 17.000000 0.000000 0.000000
v 17.000000 2.000000 0.000000
v 17.000000 0.000000 8.000000
v 17.000000 2.000000 8.000000
v 26.999998 0.000000 8.000000
v 26.999998 2.000000 8.000000
v 27.000000 0.000000 -29.000000
v 27.000000 2.000000 -29.000000
v 27.000000 0.000000 29.000000
v 27.000000 2.000000 29.000000
v -27.000000 0.000000 -29.000000
v -27.000000 2.000000 -29.000000
v -27.000000 0.000000 29.000000
v -27.000000 2.000000 29.000000
v 29.000002 2.000000 -12.000001
v -27.000000 0.000000 20.000000
v -27.000000 2.000000 20.000000
v -27.000000 0.000000 18.000000
v -27.000000 2.000000 18.000000
v -23.000000 0.000000 20.000000
v -23.000000 2.000000 20.000000
v -23.000000 0.000000 18.000000
v -23.000000 2.000000 18.000000
v 23.000000 0.000000 20.000000
v 23.000000 2.000000 20.000000
v 23.000000 0.000000 18.000000
v 23.000000 2.000000 18.000000
v 27.000000 0.000000 20.000000
v 27.000000 2.000000 20.000000
v 27.000000 0.000000 18.000000
v 27.000000 2.000000 18.000000
v -28.999998 2.000000 -12.000001
v -28.999998 2.000000 8.000000
v 39.000000 0.000000 -4.000000
v 39.000000 2.000000 -4.000000
v 39.000000 2.000000 -12.000001
v 39.000000 0.000000 0.000000
v 39.000000 2.000000 0.000000
v 39.000000 2.000000 8.000000
v 29.000002 2.000000 8.000000
v -39.000000 0.000000 -4.000000
v -39.000000 2.000000 -4.000000
v -39.000000 2.000000 -12.000001
v -39.000000 0.000000 0.000000
v -39.000000 2.000000 0.000000
v -39.000000 2.000000 8.000000
v -49.000000 0.000000 2.000000
v -49.000000 2.000000 2.000000
v -50.000000 0.000000 2.000000
v -50.000000 2.000000 2.000000
v -50.000000 2.000000 -6.000000
v -49.000000 2.000000 -6.000000
v -49.000000 0.000000 -6.000000
v -50.000000 0.000000 -6.000000
v 49.000000 0.000000 2.000000
v 49.000000 2.000000 2.000000
v 50.000000 0.000000 2.000000
v 50.000000 2.000000 2.000000
v 49.000000 2.000000 -6.000000
v 49.000000 0.000000 -6.000000
v 50.000000 0.000000 -6.000000
v 50.000000 2.000000 -6.000000
v 43.000000 2.000000 -18.000004
v 43.000000 0.000000 -18.000004
v 44.999996 2.000000 -18.000004
v 44.999996 2.000000 -4.000003
v 43.000000 2.000000 -4.000003
v 43.000000 0.000000 -4.000003
v 44.999996 0.000000 -4.000003
v 45.000000 2.000000 7.999998
v 43.000004 0.000000 7.999998
v 43.000004 2.000000 7.999998
v 45.000000 0.000000 -0.000002
v 45.000000 2.000000 -0.000002
v 43.000004 0.000000 -0.000002
v 43.000004 2.000000 -0.000002
v -43.000000 2.000000 -4.000000
v -43.000000 0.000000 -4.000000
v -44.999996 0.000000 -4.000000
v -44.999996 2.000000 -4.000000
v -44.999996 2.000000 -18.000000
v -43.000000 2.000000 -18.000000
v -43.000000 0.000000 -18.000000
v -43.000000 0.000000 8.000000
v -43.000000 2.000000 8.000000
v -44.999996 2.000000 8.000000
v -43.000000 0.000000 -0.000001
v -43.000000 2.000000 -0.000001
v -44.999996 0.000000 -0.000001
v -44.999996 2.000000 -0.000001
v -1.000000 0.000000 -22.000000
v -1.000000 2.000000 -22.000000
v -1.000000 0.000000 -28.999998
v -1.000000 2.000000 -28.999998
v 1.000000 0.000000 -22.000000
v 1.000000 2.000000 -22.000000
v 1.000000 0.000000 -28.999998
v 1.000000 2.000000 -28.999998
vt 0.375000 0.000000
vt 0.375000 0.250000
vt 0.625000 0.250000
vt 0.625000 0.000000
vt 0.375000 0.500000
vt 0.625000 0.500000
vt 0.375000 0.000000
vt 0.625000 0.000000
vt 0.625000 0.250000
vt 0.375000 0.250000
vt 0.625000 0.500000
vt 0.375000 0.500000
vt 0.000000 0.000000
vt 0.625000 0.750000
vt 0.000000 0.000000
vt 0.625000 0.500000
vt 0.875000 0.500000
vt 0.875000 0.750000
vt 0.625000 0.750000
vt 0.625000 0.500000
vt 0.875000 0.500000
vt 0.875000 0.750000
vt 0.625000 0.750000
vt 0.375000 0.000000
vt 0.625000 0.000000
vt 0.625000 0.250000
vt 0.375000 0.250000
vt 0.625000 0.500000
vt 0.375000 0.500000
vt 0.000000 0.000000
vt 0.000000 0.000000
vt 0.625000 0.500000
vt 0.375000 0.000000
vt 0.375000 0.250000
vt 0.625000 0.250000
vt 0.625000 0.000000
vt 0.375000 0.500000
vt 0.625000 0.500000
vt 0.375000 0.000000
vt 0.625000 0.000000
vt 0.000000 0.000000
vt 0.000000 0.000000
vt 0.375000 0.750000
vt 0.375000 0.250000
vt 0.625000 0.250000
vt 0.625000 0.500000
vt 0.375000 0.500000
vt 0.625000 0.750000
vt 0.375000 0.750000
vt 0.625000 1.000000
vt 0.375000 1.000000
vt 0.875000 0.500000
vt 0.875000 0.750000
vt 0.375000 0.000000
vt 0.625000 0.000000
vt 0.625000 0.250000
vt 0.375000 0.250000
vt 0.625000 0.500000
vt 0.375000 0.500000
vt 0.375000 0.750000
vt 0.625000 0.750000
vt 0.625000 1.000000
vt 0.375000 1.000000
vt 0.875000 0.500000
vt 0.875000 0.750000
vt 0.000000 0.000000
vt 0.625000 0.500000
vt 0.375000 0.500000
vt 0.000000 0.000000
vt 0.000000 0.000000
vt 0.000000 0.000000
vt 0.000000 0.000000
vt 0.000000 0.000000
vt 0.000000 0.000000
vt 0.000000 0.000000
vt 0.625000 0.750000
vt 0.625000 0.500000
vt 0.687500 0.500000
vt 0.687500 0.750000
vt 0.000000 0.000000
vt 0.000000 0.000000
vt 0.375000 0.750000
vt 0.625000 0.812500
vt 0.375000 0.812500
vt 0.375000 0.500000
vt 0.375000 0.437500
vt 0.625000 0.437500
vt 0.375000 0.875000
vt 0.625000 0.875000
vt 0.625000 1.000000
vt 0.375000 1.000000
vt 0.375000 0.250000
vt 0.625000 0.250000
vt 0.625000 0.375000
vt 0.375000 0.375000
vt 0.750000 0.750000
vt 0.750000 0.500000
vt 0.875000 0.500000
vt 0.875000 0.750000
vt 0.625000 0.000000
vt 0.375000 0.000000
vt 0.625000 0.250000
vt 0.625000 0.500000
vt 0.375000 0.500000
vt 0.375000 0.250000
vt 0.875000 0.625000
vt 0.625000 0.625000
vt 0.875000 0.500000
vt 0.375000 0.125000
vt 0.625000 0.125000
vt 0.375000 0.250000
vt 0.625000 0.250000
vt 0.625000 0.500000
vt 0.375000 0.500000
vt 0.625000 0.750000
vt 0.375000 0.750000
vt 0.875000 0.500000
vt 0.875000 0.750000
vt 0.375000 0.500000
vt 0.375000 0.250000
vt 0.625000 0.250000
vt 0.625000 0.500000
vt 0.000000 0.000000
vt 0.875000 0.750000
vt 0.625000 0.625000
vt 0.375000 0.625000
vt 0.000000 0.000000
vt 0.875000 0.500000
vt 0.875000 0.625000
vt 0.375000 0.500000
vt 0.625000 0.500000
vt 0.625000 0.750000
vt 0.375000 0.750000
vt 0.625000 1.000000
vt 0.375000 1.000000
vt 0.875000 0.500000
vt 0.875000 0.750000
vt 0.375000 0.000000
vt 0.000000 0.000000
vt 0.375000 0.000000
vt 0.625000 0.000000
vt 0.625000 0.250000
vt 0.375000 0.250000
vt 0.375000 0.500000
vt 0.625000 0.500000
vt 0.625000 0.750000
vt 0.375000 0.750000
vt 0.625000 1.000000
vt 0.375000 1.000000
vt 0.875000 0.500000
vt 0.875000 0.750000
vn 1.0000 0.0000 0.0000
vn 0.0000 0.0000 -1.0000
vn 0.0000 0.0000 1.0000
vn 0.0000 1.0000 0.0000
vn -1.0000 0.0000 0.0000
s off
f 1/1/1 3/2/1 4/3/1 2/4/1
f 3/2/2 5/5/2 6/6/2 4/3/2
f 7/7/1 8/8/1 10/9/1 9/10/1
f 9/10/3 10/9/3 12/11/3 11/12/3
f 14/13/4 40/14/4 12/11/4 59/15/4
f 16/16/4 14/17/4 13/18/4 15/19/4
f 20/20/4 18/21/4 17/22/4 19/23/4
f 21/24/5 22/25/5 24/26/5 23/27/5
f 23/27/2 24/26/2 26/28/2 25/29/2
f 19/30/4 34/31/4 26/28/4 41/32/4 20/20/4
f 27/33/5 29/34/5 30/35/5 28/36/5
f 29/34/3 31/37/3 32/38/3 30/35/3
f 32/38/5 31/37/5 35/39/5 36/40/5
f 10/9/4 8/8/4 71/41/4 72/42/4
f 11/12/1 12/11/1 40/14/1 39/43/1
f 44/44/2 45/45/2 49/46/2 48/47/2
f 48/47/1 49/46/1 47/48/1 46/49/1
f 46/49/3 47/48/3 43/50/3 42/51/3
f 49/46/4 45/52/4 43/53/4 47/48/4
f 50/54/5 51/55/5 53/56/5 52/57/5
f 52/57/2 53/56/2 57/58/2 56/59/2
f 54/60/3 55/61/3 51/62/3 50/63/3
f 57/58/4 53/64/4 51/65/4 55/61/4
f 35/39/2 39/43/2 40/14/2 36/40/2
f 25/29/5 26/28/5 34/31/5 33/66/5
f 33/66/3 34/31/3 38/67/3 37/68/3
f 16/69/4 66/70/4 32/38/4 36/40/4
f 5/5/1 37/68/1 38/67/1 6/6/1
f 6/6/4 38/67/4 17/71/4 58/72/4
f 68/73/3 67/74/3 1/1/3 2/4/3
f 4/3/4 69/75/4 68/73/4 2/4/4
f 74/76/4 78/77/4 77/78/4 76/79/4
f 61/80/3 22/25/3 21/24/3 60/81/3
f 73/82/3 74/76/3 76/83/3 75/84/3
f 73/82/1 79/85/1 78/77/1 74/76/1
f 80/86/2 77/87/2 78/77/2 79/85/2
f 83/88/3 84/89/3 82/90/3 81/91/3
f 86/92/2 85/93/2 88/94/2 87/95/2
f 84/96/4 88/97/4 85/98/4 82/99/4
f 82/100/5 85/93/5 86/92/5 81/101/5
f 93/102/5 89/103/5 90/104/5 94/105/5
f 92/106/4 91/107/4 89/103/4 93/108/4
f 95/109/3 92/110/3 93/102/3 94/105/3
f 97/111/5 98/112/5 102/113/5 101/114/5
f 101/114/2 102/113/2 100/115/2 99/116/2
f 102/113/4 98/117/4 96/118/4 100/115/4
f 104/119/1 109/120/1 108/121/1 103/122/1
f 30/35/4 65/123/4 64/124/4 28/36/4
f 104/119/3 103/122/3 106/125/3 105/126/3
f 24/26/4 22/25/4 61/80/4 62/127/4
f 103/122/4 108/128/4 107/129/4 106/125/4
f 115/130/2 116/131/2 114/132/2 113/133/2
f 113/133/1 114/132/1 111/134/1 110/135/1
f 116/131/4 112/136/4 111/137/4 114/132/4
f 28/36/2 64/124/2 63/138/2 27/33/2
f 71/41/2 8/8/2 7/7/2 70/139/2
f 117/140/5 118/141/5 120/142/5 119/143/5
f 123/144/1 124/145/1 122/146/1 121/147/1
f 121/147/3 122/146/3 118/148/3 117/149/3
f 124/145/4 120/150/4 118/151/4 122/146/4
l 59 10
l 24 41
l 58 4
l 65 66
l 30 66
l 66 15
l 62 41
l 69 58
l 72 59
