# Blender v2.93.5 OBJ File: 'pacman_scene.blend'
# www.blender.org
o Ground_Plane.008
v -29.000000 0.000000 -31.000000
v 28.999998 0.000000 -31.000000
v -29.000000 0.000000 31.000002
v 29.000002 0.000000 31.000000
v 28.999998 -1.000000 -31.000000
v -29.000000 -1.000000 -31.000000
v -29.000000 -1.000000 31.000002
v 29.000002 -1.000000 31.000000
vn 0.0000 1.0000 0.0000
vn 0.0000 -1.0000 0.0000
vn 0.0000 0.0000 1.0000
vn -1.0000 0.0000 0.0000
vn 1.0000 0.0000 -0.0000
vn 0.0000 0.0000 -1.0000
s off
f 3//1 4//1 2//1 1//1
f 7//2 6//2 5//2 8//2
f 3//3 7//3 8//3 4//3
f 1//4 6//4 7//4 3//4
f 4//5 8//5 5//5 2//5
f 2//6 5//6 6//6 1//6
